<svg xmlns:xlink="http://www.w3.org/1999/xlink" xmlns="http://www.w3.org/2000/svg" nopin="nopin" class="icon" aria-hidden="true" focusable="false" width="18"  height="18" ><defs><symbol id="contact-us" viewBox="0 0 17 14"><path d="M8.5 0C3.813 0 0 3 0 6.663 0 8.18.66 9.65 1.865 10.828L.3 13.472a.35.35 0 00.03.4c.068.083.17.128.274.128a.34.34 0 00.117-.02l3.962-1.366a10.5 10.5 0 003.825.71c4.687 0 8.5-3 8.5-6.663S13.187 0 8.5 0zm0 12.625a9.75 9.75 0 01-3.679-.708.36.36 0 00-.253-.007L1.4 13.004l1.226-2.06a.347.347 0 00-.066-.436C1.363 9.432.708 8.066.708 6.663.708 3.375 4.204.7 8.5.7s7.792 2.674 7.792 5.962-3.495 5.962-7.792 5.962z"></path><use xlink:href="#A"></use><use xlink:href="#A" x="4"></use><use xlink:href="#A" x="8"></use></symbol></defs>
            <use xlink:href="#contact-us" fill="#696969"></use>
          </svg>