<svg xmlns:xlink="http://www.w3.org/1999/xlink" xmlns="http://www.w3.org/2000/svg" aria-hidden="true" role="img" nopin="nopin" class="icon icon-hermes-logo" focusable="false" width="70"  height="40" ><defs><symbol id="hermes-logo" viewBox="0 0 70 40"><path d="M6.744 21.4h1.322v2.526H3.364V21.4H4.68v-1.5H.5v1.48h1.33v7.44H.5v1.473h4.18V28.83H3.363v-3.452h4.702v3.452h-1.32v1.473h4.2V28.83H9.6V21.4h1.335v-1.5h-4.2m50.42 8.92h-4.12v-3.467H56.6v-1.467h-3.545V21.4h4.152v1.422h1.46V19.9h-8.54v1.48H51.5v7.44h-1.393v1.473h8.56V26.84h-1.5m-35.717 0h-1.5v2h-4.12v-3.467h3.545v-1.467H15.82V21.4h4.153v1.422h1.46V19.9h-8.54v1.48h1.393v7.44h-1.394v1.473h8.558m31.993-10.906h2.995l-.766-.913h-3.07m14.404 5.876c-1.045-.298-1.783-.23-2.846-.585-.96-.322-1.15-.912-1.15-1.303s.424-1.412 1.932-1.412 2.498.998 2.554 1.877l.006-.004v.004h1.45v-3.03H67.55v.66l.044.206c-.01-.03-.05-.113-.198-.26-.447-.408-1.295-.844-2.57-.844-1.545 0-3.365.958-3.365 2.8 0 1.805 1.304 2.435 2.4 2.727s1.673.294 2.597.544 1.52.806 1.52 1.63c0 .78-.48 1.803-2.432 1.803s-2.727-1.054-2.953-2.562l-.016.007h-1.38v3.678h1.442v-.688l-.004-.005-.052-.182s.052.123.216.237l.014.02c.73.56 1.688.932 2.916.932 1.37 0 3.768-.703 3.768-3.193-.004-1.782-.95-2.622-2.5-3.068zM43.93 28.83v1.473h4.24V28.83h-1.4V21.4h1.4v-1.5h-3.8l-2.5 6.074-.052.298-.05-.303-2.5-6.07h-3.786v1.48h1.387v7.44h-1.39v1.473h4.237V28.83h-1.325v-6.842l.01-.452.123.36 2.9 6.915h.822l2.9-6.917.106-.364.016.4v6.9m-30.28-13.296v.34h1.43l-.408-.34h-1.022zm38.516.006h-.744c-.207.04-.36.215-.377.334h1.12v-.335zm-38.516 1.326h38.5v-.72H28.7c-.633.302-1.436.288-2.062 0h-7.52a2.82 2.82 0 01-2.24.003l-1.92-.005v.72zm10.844-1.332h-5.816c-.02.04-.286.27-.394.34h6.58a2.114 2.114 0 01-.37-.34z"></path><path d="M15.628 12.862a2.48 2.48 0 00-.113.703 2.486 2.486 0 004.97.001c0-.294-.06-.573-.154-.835l.842-.187c.13-.035.125-.094.023-.125-.368-.113-.76-.2-1.16-.274a2.48 2.48 0 00-2.035-1.064c-.32 0-.622.065-.9.175a.747.747 0 01-.04-.682c.253-.412.814-.573 1.275-.612.155-.008.527.01.567.054.1.072.245.098.4.04.158.06.198.107.378.163 1.584.54 3.338.825 5.1.5.277.262.43.722.624 1.04.052.08.115-.06.988-.1l1.015-.002c-.68.078-1.265.46-1.612 1.012-.546.174-.967.34-1.125.436-.194.117-.23.182 0 .242a6.12 6.12 0 00.817.153c-.018.1-.034.223-.034.338a2.205 2.205 0 104.411 0c0-.38-.105-.733-.274-1.045l.88-.33c.24.087.403.23.575.43.14.158.457.096.645.05.305-.08.352-.323.35-.6 0-.126.006-.25.066-.35.357-.813 1.784-.92 2.516-1.1 0 0-.383.46-.654.562-.055 1.187-.5 2.22-.565 3.352.345.014.33.4.413.62-.096.208-.262 0-.413.07-.524-.3.124-.758-.304-1.117.22-.95.58-1.875.55-2.882-.137.014-.2.166-.247.276-.097.953-.372 1.822-.62 2.704.1.055.303.1.3.276-.332.207.013.54-.125.776h-3.405l-.378.34h5.222l.05-.192c-.77-.8-.48-2-.123-2.9l.896-1.214c.745-.3 1.2-1.2 1.986-1.5 0 .387-.483.553-.745.773-.274.648-1.144.717-1.268 1.435.33.386.825.634 1.24.993.428.263.274.814.62 1.1.056.083 0 .207-.098.276-.363.087-.352.332-.133.536.14.13.3.3.282.364h-2.4c0 .1.098.152.204.34h13.3c.1-.188-.117-.4-.2-.595-.94-.355-.935-1.244-1-2.224.01-.04-.054-.133-.044-.335-.14-.132-.758-1.705-.477-2.936l.205-.405c.193-.277-.012-.425.125-.714l2.805-.542c.05-.026.037-.14-.016-.192l-.852.158c-.677-.285-1.67-.915-2.324-1.77.203-1.386.102-2.5-.035-3.26l.744-.662c.283.17.344.1.383-.002-.045-.052-.465-.23-.396-.412.265.07.324-.012.365-.16l-.186-.066h-.006l.03-.1c.054-.1.304-.006.4-.034.167-.102-.02-.255.036-.393-.4-.33-1.094-.34-1.52-.647-.132-.246-.186-.35-.324-.45s-.76-.157-.875-.12-.33.243-.33.243c-.443.093-.7-.05-1.015-.235 0 0 .065.35.414.498-.308.126-.444.386-.494.712-.424.086-.44.508-.385.7-.347.207-.313.482-.2.76-.3.208-.263.508-.175.737-.26.16 0 .604.04.864.747-.154 1.68 1.495 3.02 1.698.252-1.177-.064-1.754-.354-2.335.218-.127.455-.302.685-.486a10.42 10.42 0 01.08 3.057c-.01-.01-.02-.018-.026-.028-.084 0-.168-.056-.236-.083.014.04.168.285.137.33 0 0-.434.287-1.295-.075-.23.538-3.186 1.86-3.186 1.86.1.816.498 1.358.898 1.8.635.47 1.313.712 2.114.878l.76 2.1c.054.232.183.232.183.232.077.104.33.564.358.785l.063.78c.027.178.26.044.304.196l-.108.524-8.855.002c.124-.62-.192-1.162-.028-1.714-.356-.62-1.322-1.048-1.158-1.862.47-.648 1.93-1.28 1.6-2.063 1.327-.673 2.027.45 3.284.367.438-.024.926-.072 1.327-.2-.496-.43-.97-1.062-1.22-1.627-2.634 1.06-5.196 1.933-8.052 2.512l-.22-.07c-.217.033-3.363.74-4.197 1.065a2.19 2.19 0 00-.71-.273h.073c.267 0 .675-.142.964-.243 1.222-.446 1.672-2.186 2.22-3.292.48 1.72 1.594 1.86 2.24 1.646l.06.54s.564-.02.988-.2c-.043-.102-.1-.375-.14-.734l.513-.298c.035.408.06.793-.062 1L36.4 9.73c.28-1.257 1.04-3.004 2.383-4.28-1.803-.717-3.154.102-3.497.43-1.697.542-1.765 2.884-1.714 3.7-.294.058-1.528.486-2.112-1.65.34-.82.985-1.732 1.7-2.443.063-.053-.01-.137-.155-.052-1.457 1-2 2.76-2.773 4.246-.614.923-1.443 1.423-2.686 1.37-1.552-.024-2.303-1.643-3.014-2.694-1.1-2.387-3.9-1.53-6.006-2.04-.117-.06-.35-.75-.684-.724-.237.018-.014.262-.15.344-.263-.1-.484-.303-.814-.248-.207.042-.263.262-.248.456.165.758.978 1.1 1.585 1.366.233.348.146 1.55-.048 1.963-.25.46-1.233.296-1.43 1.35-.038.214.01.4.098.575a2.495 2.495 0 00-.938.86l-1.204.348c-.1.036-.1.094.03.124l.898.148zM46.682 6.96a5.65 5.65 0 001.77 1.185l-1.593.295c.18-.675-.434-.934-.178-1.48zm.172-5.463c.06-.025.228.04.297.058.042.01.026.1.005.18-.104.022-.266-.035-.288-.1-.03-.06-.072-.122-.013-.148zm.013.4a.92.92 0 00.137.35c-.002.054-.297.327-.637.615l-.2-.818c.135-.096.5-.2.7-.147zM45.342.444a.34.34 0 01.215.044c.033.025.006.126.004.16s-.152.106-.152.106-.144-.1-.142-.144L45.26.607a1.33 1.33 0 01.082-.163zm.187 3.083c-.188-.38-.34-.782-.3-1.37.182-.003.446.116.795-.042 0 0 .108.326.215.86l-.7.552zm-2.385 6.6c-.57-.286-.215-.046-.05-.17.903.416 1.358.32 2.034.238.097.124.23.24.23.405-.827.235-1.47-.07-2.215-.472zm3.253 4.45c-.053-.438-.078-.748-.28-.957l-.954-2.74c.2-.198.355-.095.488.448l.396 1.166c.154.368.27.858.388 1.116 0 0 .104.018.162.157.3.8.366.94.317 1.326.07.303.496.056.457.43h-.904l.398-.003c-.274-.3-.08-.722-.468-.943zm-17.632.725c-.25.187-.55.306-.877.344-.032-.01-.06-.075-.062-.115l-.052-1.127c-.002-.012.018-.025.03-.03a1.18 1.18 0 00.136-.058c.012-.007.043-.01.053 0l.74.858c.026.032.05.102.03.13zm-1.144.36c-.3-.01-.58-.095-.827-.232-.02-.028-.013-.102.01-.135l.618-.942c.006-.01.03-.01.044-.006a1.04 1.04 0 00.122.03c.014 0 .04.02.04.033l.055 1.13a.16.16 0 01-.063.12zm-1.56-2.347c-.04-.012-.1-.066-.098-.1a1.82 1.82 0 01.225-.436l.46-.124.5.63-.023.003c-.324.04-.627.06-.914.064l-.15-.04zm1.407-1.3c.03.012.06.076.06.115l.005.088-.876.195c-.018-.037-.027-.08-.012-.1.24-.163.52-.263.82-.297zm-.158 1.23l-.508-.636.742-.164.034.745-.268.055zm-.048.2c-.002.007 0 .014-.004.02a.945.945 0 00-.065.107c-.006.013-.03.032-.045.03l-.365-.1.48-.058zm.673-.136c-.006.01-.03.01-.044.005h-.005l.053-.012-.003.006zm-.213-.155l-.035-.737.894-.14a.261.261 0 01-.026.088l-.453.688-.38.1zm.953-.7c.02-.033.084-.07.118-.063a1.92 1.92 0 01.35.353l-.828.26.36-.55zm-1-.253l-.002-.07c-.002-.042.03-.116.062-.123.2.005.37.042.54.1l-.6.092zm-.025-.195c.01 0 .018-.003.027-.003l.024.002h-.052zm-2.618 1.244c-.098-.03-.075-.06-.016-.085l.65-.23a2.38 2.38 0 00-.134.4 2.804 2.804 0 01-.5-.084zm.845.285l.453.003.776.213c.01.003.018.026.018.04 0 .03.005.1.014.145 0 .014-.01.025-.022.03l-1.035.457c-.038.015-.113.014-.136-.012a1.827 1.827 0 01-.102-.574c0-.104.014-.203.03-.3zm.115 1.017l-.003-.007zm.056.104c0-.034.055-.086.1-.102l1.04-.434c.01-.006.03.01.038.02l.07.08c.012.01.022.04.016.05l-.62.946c-.022.034-.1.07-.122.06a1.68 1.68 0 01-.5-.62zm.617.703l-.026-.018.027.017zm1 .306h-.001zm1.3-.537c-.03.018-.105-.02-.133-.05l-.737-.857c-.01-.008-.002-.03.006-.043a.773.773 0 00.053-.092c.007-.013.03-.032.045-.03l1.1.302c.034.01.1.047.102.08-.093.26-.235.498-.426.7zm.498-.94c-.018.03-.1.04-.14.03l-1.085-.3c-.013-.003-.02-.026-.02-.04 0-.028-.002-.1-.008-.125-.003-.014.005-.044.017-.05l1.054-.4a.166.166 0 01.135.018c.047.164.08.333.08.513a1.9 1.9 0 01-.035.355zm-.14-1.125c0 .035-.055.1-.092.105l.07-.024-1.123.422c-.012.005-.03-.01-.038-.02a1.106 1.106 0 00-.08-.097c-.013-.01-.022-.038-.017-.05l.097-.147 1.1-.34.084.152zm2.93-1.6c-.488.352-.258.767-.56.85-.1-.016-.724.096-.82.14-.207-.193-.418-.356-.736-.44a9.26 9.26 0 012.116-.55zm-1.985.875c-.105.05-.385.158-.762.3a2.17 2.17 0 00-.328-.386c.472-.025.857 0 1.1.096zm5.268-6.178c-.738.742-.643 1.85-.557 2.722-.17.124-.38.228-.516.304-.08-1.07.035-2.666 1.074-3.026zm-18.47.376c-.124-.166-.306-.42-.165-.593.104-.128.316-.028.44.028l1.157.562c1.67.416 3.78-.197 5.104 1.003.065.06.112.117.098.2-1.943-1.324-4.868.634-6.633-1.2zm1.572 2.138c.138.083.193.303.345.427.248.414.717.552.965.9a.837.837 0 01-.25-.018c-.162-.032-.226-.08-.362-.14-.072-.117-.253-.156-.395-.08a1.99 1.99 0 01-.634-.05c.04-.332.36-.65.33-1.05zm-1.944 3.57l.508.565-1.06-.043c-.026-.036-.04-.07-.033-.1.065-.136.144-.262.235-.38l.35-.05zm3.012.14c.062.1.112.186.16.285l-.796.087.397-.34c.1-.08.213-.063.238-.032zm-.35-.088l-.564.48-.437.02.23-.654.823.056c-.012.035-.022.07-.05.098zm-.138 2.945a2.1 2.1 0 01-.67.323c-.044-.006-.128-.074-.152-.174l-.22-1.193c-.004-.015.002-.034.017-.04a.54.54 0 00.12-.056c.013-.01.03-.003.04.008l.815.896c.08.094.077.202.05.235zm-1.726-2.1c.01.01.014.032.005.044-.025.03-.034.04-.054.077-.007.014-.024.016-.04.01l-.908-.324.843.023.154.17zm.9-.045a.47.47 0 00-.09-.065c-.016-.008-.02-.02-.014-.037l.017-.046.316-.016-.2.16c-.01.01-.026.014-.038.004zm-.215-.285l-.234.008h-.004l-.125-.67.114-.01.488.01-.24.663zm-.528-.652l.122.66h-.347l-.54-.6.765-.07zm.135.8l-.126.072c-.014.01-.03.003-.04-.008l-.056-.062.223-.003zm-1.72-.2c.003-.008.01-.017.013-.027a.182.182 0 01-.013.028zm-.093.302c.023-.037.13-.083.232-.05l1.143.408c.013.004.025.02.022.035a.657.657 0 00-.01.112c0 .016-.013.025-.027.03l-1.194.222c-.118.017-.2-.04-.217-.08l-.017-.176c0-.173.026-.34.068-.502zm.02 1.074c.004-.045.073-.135.176-.158l1.2-.218a.031.031 0 01.036.02c.012.034.016.05.038.086.007.014.003.028-.01.04l-.947.762c-.102.077-.2.06-.235.03-.1-.173-.2-.363-.248-.562zm.285.616c-.01-.013-.02-.025-.028-.04.006.012.018.027.027.04zm.223.272c-.022-.034-.006-.16.078-.23l.946-.755c.01-.014.027-.017.04-.005.027.025.07.057.106.077.015.008.02.02.012.038l-.4 1.142c-.044.115-.136.16-.177.152a2.127 2.127 0 01-.594-.42zm.693.468a.243.243 0 01-.037-.016l.036.016zm.286.1c-.038-.023-.1-.126-.058-.228l.414-1.146c.004-.015.018-.025.033-.022.037.007.07.01.113.01.017 0 .027.014.03.03l.223 1.195c.018.115-.035.2-.075.214-.056.004-.112.017-.17.017-.177 0-.345-.027-.508-.07zm1.97-.53c.01-.01.02-.02.026-.03-.01.01-.017.02-.026.03zm.073-.085c-.037.023-.155.015-.23-.062l-.81-.904c-.01-.01-.014-.03-.003-.043a.378.378 0 00.052-.078c.007-.015.024-.018.038-.01l1.16.412c.12.047.15.142.14.18a2.173 2.173 0 01-.343.505zm.35-.522c.017-.03.036-.078.055-.126l-.055.125zm.133-.377c-.016.038-.12.094-.227.06l-1.154-.414c-.013-.004-.025-.02-.023-.035.006-.038.01-.056.01-.097 0-.016.014-.025.028-.03l1.217-.2c.12-.015.196.042.208.083l.01.12a2.04 2.04 0 01-.067.502zm-.005-1.022c0 .048-.07.134-.174.154l-1.2.2a.033.033 0 01-.036-.02.64.64 0 00-.05-.12c-.01-.013-.006-.027.005-.04l.36-.308 1.023-.115a2.24 2.24 0 01.08.26zm.623-.626c.078.025.105.077.006.104-.104.028-.23.05-.35.075-.045-.106-.105-.203-.163-.3l.506.12zm-1.977-.443l.05-.143c.044-.114.14-.153.184-.146a2.13 2.13 0 01.53.36l-.765-.07zm-.158-.43c.037.027.086.135.055.235l-.068.2-.553-.016c-.048 0-.093.01-.142.01l-.047-.256c-.018-.118.037-.194.078-.213.06-.005.116-.018.175-.018a2.08 2.08 0 01.502.067zm-1.07.02c.045.005.132.074.155.176l.03.163a2.46 2.46 0 01-.282-.308l.098-.03zm-.07.433l-.578.07c-.04-.078-.042-.15-.02-.176.095-.07.198-.132.306-.186a3.35 3.35 0 00.292.292zm-.832.086zm-1.27.476c.156-.056.346-.108.556-.158a2.606 2.606 0 00-.145.318l-.4-.056c-.102-.018-.077-.076 0-.104zM51.96 6.638c-.042.035-.056.083-.022.1.064.012.1.034.174.102.04.02.03-.042.02-.076-.04-.096-.124-.154-.17-.116z"></path><path d="M50.46 15.54h-1.966c-.025.133.13.23.22.333h2.147l.6-.292c.106-.26-.108-.5-.1-.7.036-.626-.313-1.25-.497-1.823.12-.127.27-.42.467-.342.46.716.545 1.63.467 2.54-.047.225-.43.43-.418.642.007.074.5.042.718-.135.037-.146.307-.326.394-.347.096-.275-.054-.266-.03-.432.048-.115-.016-1.355-.102-1.488-.032-.02-.043-.02-.045-.017-.096-.246.138-.623.232-.856l.686-.062c-.082-.6-.3-1.244-.438-1.87.084-.146.236-.26.375-.343.723-.477.086-1.246.062-1.84-.123-.308-.547-.548-.586-.888.088.068.155.04.174.045.207-.142.197-.347.094-.604l.564-.665c-.02-.313-.523-.78-.818-.78-.174.096-.3.3-.6.538-.01.013-.384-.13-.497-.01-.1.1-.072.38.13.537-.025.077-.048.107-.1.2-.022.046-.032.095-.003.122.066.06.1.153.043.296-.05.152.12.264.18.286.01.003.03.024.05.05.022.168-.548.47-.548.6-.045.393-.3.354-.528 1.645a4.51 4.51 0 01.004.837l-.728 1.775c-.164.46.756 1.792.77 2.7-.2.3-.36.257-.373.347zm1.493-1.383c-.047-.123-.086-.297-.062-.426.08-.077.23-.02.306-.032.093.43.116.5-.243.46zM51.96 7.8c.026-.02.05-.084.065-.107.303-.194.094-.054-.207-.213-.098-.05-.1-.144-.088-.277.018-.165-.05-.197-.076-.25-.01-.022.037-.103.076-.16.07-.106.133-.326.166-.38.502.02.4.242.403.282.04.108.25.34.353.413-.03.304-.268.125-.162.402-.028.526-.653.46-.92.892-.027-.428.35-.427.4-.603zm-.57 2.264c.136.123.28.278.384.304.072.18-.15.205-.23.3-.187.028-.257-.17-.366-.08-.025.02-.137-.003-.135-.025.06-.16.227-.4.346-.5zm-1.185 2.68c-.07-.364.414-.93.736-2.04.132-.046.202.257.4.14.3.007.166.762.436.282-.006-.212-.012-.45.156-.563.182-.042.3.06.312.22l-.28.436c.53.02-.17.872.53.716-.023.32-.195 1.217-.318 1.172-.096-.497-.174-.3-.174-.144.02.193.016.35.13.506-.038.04-.18.036-.22.045-.396-.565-.38-1.34-.635-1.954-.043-.002-.097.05-.095.095-.03.37-.174.904-.478 1.08-.2.112.418.044-.08.278.2.126.015.297-.194.297-.104-.222-.184-.406-.215-.567zm.525 1.226c-.072-.084-.183-.327-.228-.432l.3-.12a.85.85 0 01.193.45c-.065.035-.155.095-.255.102zM41.395 8c-.043-.6.2-1.1-.075-1.72.003-.26.185-.46.136-.7l-.447.108c-.068.496-.15.66-.083 1.127.118.535.178 1.022.468 1.186zm-4.618 1.65c1.7-.48 2.9-.9 4.307-1.485-.6-1.26-.46-1.624-.4-2.43 0 0-.72.01-1.557-.212-.992.64-2.15 2.93-2.34 4.126zm5.868.365c-.092-.1.044.054 0 0zm2.055-3.82c-.72-.496-1.278-1.65-2.063-1.572-.076-.85-.447-2.293.727-3.815.152-.07.4-.097.496-.208-.48-.05-1.112.247-1.57-.013 0 0 .212.37.458.426-.162.22-.476.377-.285.76-.392.233-.244.582-.123.77-.196.202-.315.565-.055.786-.32.343.077.634.17.75-.162.343-.006.608-.006.608-.006.247-.446.6-.605.714-.2.58-.117 1.747-.088 2.52 1.07-.512 2.12-1 2.944-1.727zM32.4 26.707c0-.6-.407-1.33-.966-1.668a1.03 1.03 0 00-.45-.146c.136.008.32-.002.493-.074.584-.256 1.27-.99 1.27-2.224 0-.913-.393-1.65-1.06-2.135-.624-.452-1.364-.554-2.103-.554h-5.82v1.48h1.3v7.455h-1.3v1.474h4.133V28.84h-1.293v-3.284h2.857c.985.012 1.366.66 1.386 1.217l.072 3.54h2.856V28.84H32.44l-.04-2.133zm-2.63-2.58h-3.165v-2.74H29.6c.3 0 .696-.01.997.143.368.187.713.6.713 1.248 0 .76-.696 1.35-1.54 1.35zm-6.523 9.848h-1.973v5.947h.88v-2.574h.976c1.42 0 2.065-.73 2.065-1.664 0-.942-.6-1.7-1.948-1.7zm-.036 2.607h-1.055v-1.84h1.092c.8 0 1.04.47 1.04.904 0 .595-.42.936-1.076.936zm5.405-2.642l-2.632 5.98h.95l.72-1.753h2.605l.745 1.753h.97l-2.74-5.98h-.62zm-.62 3.46l.916-2.35.987 2.35h-1.904zm12.992-3.425h.88v5.947h-.88zm4.54 1.395c0-.42.428-.707 1.024-.707.44 0 .973.14 1.522.62v-.97a2.767 2.767 0 00-1.445-.417c-1.188 0-1.967.617-1.967 1.586 0 1.63 2.803 1.77 2.803 3 0 .33-.332.748-1.055.748-.638 0-1.234-.306-1.7-.86v1.08c.542.375 1.1.55 1.814.55 1.045 0 1.814-.682 1.814-1.613.004-1.893-2.8-1.875-2.8-3.018zm-7.65 3.374c-.477-.74-.824-1.3-1.4-1.648.667-.252 1.042-.768 1.042-1.455 0-1.028-.788-1.665-2.05-1.665h-1.576v5.947h.897V37.34h.376c.458 0 .833.14 1.657 1.36l.787 1.222h1.053l-.463-.692-.333-.486zm-2.5-2.17h-.575v-1.867h.576c.87 0 1.218.34 1.228.898.007.5-.266.968-1.228.968z"></path></symbol></defs>
          <use xlink:href="#hermes-logo" fill="#696969"></use>
        </svg>