<svg xmlns:xlink="http://www.w3.org/1999/xlink" xmlns="http://www.w3.org/2000/svg" nopin="nopin" aria-hidden="true" role="presentation" focusable="false" class="icon icon-instagram" width="512"  height="512" ><defs><symbol id="instagram" viewBox="0 0 512 512"><path d="M256 45.606l103.702 1.496c25.02 1.142 38.6 5.322 47.654 8.837 11.98 4.655 20.528 10.217 29.508 19.197s14.542 17.53 19.198 29.508c3.514 9.043 7.695 22.632 8.837 47.653 1.235 27.062 1.496 35.178 1.496 103.703L464.9 359.702c-1.142 25.02-5.322 38.6-8.837 47.654-4.655 11.98-10.217 20.528-19.197 29.508s-17.53 14.542-29.508 19.198c-9.043 3.514-22.632 7.695-47.654 8.837-27.057 1.235-35.173 1.496-103.702 1.496s-76.645-.26-103.702-1.496c-25.02-1.142-38.6-5.322-47.654-8.837-11.98-4.655-20.528-10.217-29.508-19.197s-14.542-17.53-19.198-29.508c-3.514-9.043-7.695-22.632-8.837-47.653-1.235-27.062-1.496-35.178-1.496-103.702L47.102 152.3c1.142-25.02 5.322-38.6 8.837-47.654 4.655-11.98 10.217-20.528 19.197-29.508s17.53-14.542 29.508-19.198c9.043-3.514 22.632-7.695 47.653-8.837 27.062-1.236 35.18-1.497 103.703-1.497m0-46.24c-69.698 0-78.437.295-105.8 1.544-27.316 1.246-45.97 5.585-62.296 11.93-16.876 6.558-31.188 15.333-45.455 29.6s-23.042 28.58-29.6 45.455C6.494 104.22 2.156 122.874.9 150.2-.34 177.563-.634 186.302-.634 256L.9 361.8c1.246 27.316 5.585 45.97 11.93 62.296 6.558 16.876 15.333 31.188 29.6 45.455s28.58 23.042 45.455 29.6c16.325 6.344 34.98 10.682 62.296 11.93 27.373 1.25 36.112 1.544 105.8 1.544s78.437-.295 105.8-1.544c27.316-1.246 45.97-5.585 62.296-11.93 16.876-6.558 31.188-15.333 45.455-29.6s23.042-28.58 29.6-45.455c6.344-16.325 10.682-34.98 11.93-62.296 1.25-27.373 1.544-36.112 1.544-105.8l-1.544-105.8c-1.246-27.316-5.585-45.97-11.93-62.296-6.558-16.876-15.333-31.188-29.6-45.455s-28.58-23.042-45.455-29.6C407.78 6.494 389.126 2.156 361.8.9 334.437-.34 325.698-.634 256-.634zm0 124.85c-72.783 0-131.785 59.002-131.785 131.785S183.217 387.785 256 387.785 387.785 328.783 387.785 256 328.783 124.215 256 124.215zm0 217.33c-47.245 0-85.545-38.3-85.545-85.545s38.3-85.545 85.545-85.545 85.545 38.3 85.545 85.545-38.3 85.545-85.545 85.545z"></path><circle cx="392.992" cy="119.008" r="30.796"></circle></symbol></defs>
              <use xlink:href="#instagram" fill="#696969"></use>
            </svg>