<svg xmlns:xlink="http://www.w3.org/1999/xlink" xmlns="http://www.w3.org/2000/svg" nopin="nopin" class="icon" aria-hidden="true" focusable="false" width="13"  height="18" ><defs><symbol id="find-a-store" viewBox="0 0 13 18"><path d="M6.127 17.78c.02.04.04.06.06.08a.36.36 0 00.301.14c.12 0 .24-.02.34-.14.02-.02.06-.06.06-.1l3.967-6.02c.82-1.28 1.783-2.54 2.043-4.06.32-1.82-.12-3.702-1.242-5.162-2.223-2.92-6.55-3.36-9.355-1a6.453 6.453 0 00-2.283 4.5c-.14 1.84.56 3.24 1.502 4.742l4.607 7.02zM1.62 3.537c1.923-3.2 6.5-3.66 9.055-.94a5.805 5.805 0 011.402 5.101c-.28 1.34-1.222 2.54-1.963 3.68a260.13 260.13 0 01-3.606 5.502 229.276 229.276 0 01-3.065-4.601L1.46 9.1C.5 7.4.62 5.2 1.62 3.538zM6.5 9C7.877 9 9 7.877 9 6.5S7.877 4 6.5 4A2.505 2.505 0 004 6.5C4 7.895 5.123 9 6.5 9zm0-4.24a1.76 1.76 0 011.757 1.758A1.76 1.76 0 016.5 8.275a1.76 1.76 0 01-1.757-1.757A1.75 1.75 0 016.5 4.761z"></path></symbol></defs>
            <use xlink:href="#find-a-store" fill="#696969"></use>
          </svg>