<svg xmlns:xlink="http://www.w3.org/1999/xlink" xmlns="http://www.w3.org/2000/svg" nopin="nopin" class="icon icon-account" data-hide-connected="true" aria-hidden="true" focusable="false" width="24"  height="24" ><defs><symbol id="account" viewBox="0 0 20 20"><path fill-rule="evenodd" clip-rule="evenodd" d="M9.994 2.72a2.25 2.25 0 100 4.5 2.25 2.25 0 000-4.5zm-3.75 2.25a3.75 3.75 0 117.5 0 3.75 3.75 0 01-7.5 0zM3.743 18.016l-.046.748-1.497-.091.046-.749v-.01l.002-.021.006-.07a10.201 10.201 0 01.176-1.105c.151-.7.427-1.645.928-2.597 1.017-1.933 2.975-3.901 6.573-3.901 3.595 0 5.582 1.964 6.63 3.891.518.951.811 1.894.975 2.594a10.264 10.264 0 01.196 1.104l.007.07.002.021v.01-.01l.001.01.06.748-1.496.119-.06-.746v-.011l-.005-.046a8.796 8.796 0 00-.165-.926 8.993 8.993 0 00-.832-2.22c-.856-1.572-2.4-3.108-5.313-3.108-2.91 0-4.421 1.532-5.245 3.1a8.824 8.824 0 00-.79 2.215 8.704 8.704 0 00-.152.972l-.001.01z"></path></symbol></defs>
          <use xlink:href="#account" fill="#696969"></use>
        </svg>