<svg xmlns:xlink="http://www.w3.org/1999/xlink" xmlns="http://www.w3.org/2000/svg" nopin="nopin" class="account-category-icon icon icon-profile" aria-hidden="true" width="24"  height="24" ><defs><symbol id="profile" viewBox="0 0 24 24"><path d="M11.993 10.03a1.95 1.95 0 00-1.97 1.97c0 1.086.884 1.97 1.97 1.97s1.97-.884 1.97-1.97a1.95 1.95 0 00-1.97-1.97zm0 2.92a.947.947 0 01-.94-.95c0-.532.414-.95.94-.95s.94.418.94.95c0 .523-.422.95-.94.95zm6.08-2.592l-.663-.05c-.1-.36-.242-.664-.402-.948l1.045-1.177-.67-.666-.918-.9-.664-.66-.7.618-.47.413a4.478 4.478 0 00-.973-.4L13.545 5h-3.128l-.124 1.582c-.364.1-.677.24-.97.4l-.467-.414-.708-.626L6.585 7.52l-.68.682 1.082 1.156a4.51 4.51 0 00-.404.95l-1.58.12v3.143l1.554.122a4.92 4.92 0 00.402.946l-.417.477-.615.706 2.242 2.234 1.17-1.033c.32.18.647.313.973.4l.05.653.07.927h3.124l.068-.927.05-.655a4.44 4.44 0 00.97-.4l.47.416.708.623.663-.67 1.56-1.574-.62-.702-.414-.468a4.04 4.04 0 00.404-.952l.656-.05.926-.068V10.43l-.924-.072zm-.076 2.287l-.682.05a.88.88 0 00-.836.623 3.08 3.08 0 01-.39.916c-.17.327-.127.702.134 1.03l.452.5-.9.9-.5-.44a.829.829 0 00-.6-.257c-.142 0-.295.037-.458.12a4.18 4.18 0 01-.947.384.884.884 0 00-.602.82l-.05.7h-1.27l-.053-.7a.866.866 0 00-.633-.828 3.626 3.626 0 01-.88-.353.736.736 0 00-.476-.144.883.883 0 00-.615.263l-.5.434-.916-.9.443-.508a.83.83 0 00.133-1.047 3.84 3.84 0 01-.384-.902c-.1-.373-.427-.622-.837-.622L6 12.646v-1.3l.68-.053a.873.873 0 00.837-.622 3 3 0 01.393-.916c.163-.325.122-.698-.14-1.03l-.478-.5.898-.907.494.438c.17.167.388.26.613.26.173 0 .352-.077.438-.12.276-.158.58-.28.948-.385.36-.13.6-.458.6-.82l.056-.7h1.27l.05.7a.87.87 0 00.634.83c.3.066.6.2.882.352.16.126.337.143.474.143 0 0 .03.01.08.01.105 0 .306-.04.535-.273l.493-.435.917.9-.45.5c-.3.28-.34.704-.13 1.045.16.27.287.568.385.9.093.374.428.622.835.622l.682.052v1.3z"></path></symbol></defs>
          <use xlink:href="#profile" fill="#696969"></use>
        </svg>