<svg xmlns:xlink="http://www.w3.org/1999/xlink" xmlns="http://www.w3.org/2000/svg" nopin="nopin" aria-hidden="true" role="presentation" focusable="false" class="icon icon-twitter" width="24"  height="24" ><defs><symbol id="twitter" viewBox="0 0 24 24"><path d="M22 5.792a8.212 8.212 0 01-2.354.65 4.107 4.107 0 001.803-2.27c-.793.47-1.67.81-2.606.995a4.105 4.105 0 00-6.991 3.742A11.65 11.65 0 013.397 4.62a4.097 4.097 0 001.267 5.48 4.088 4.088 0 01-1.86-.51v.05a4.108 4.108 0 003.292 4.023 4.13 4.13 0 01-1.851.074 4.104 4.104 0 003.833 2.848 8.234 8.234 0 01-5.097 1.76c-.332 0-.66-.02-.98-.056a11.647 11.647 0 006.288 1.84c7.55 0 11.68-6.254 11.68-11.674 0-.178-.004-.356-.014-.533.8-.583 1.5-1.305 2.046-2.13z"></path></symbol></defs>
              <use xlink:href="#twitter" fill="#696969"></use>
            </svg>