<svg xmlns:xlink="http://www.w3.org/1999/xlink" xmlns="http://www.w3.org/2000/svg" nopin="nopin" aria-hidden="true" role="presentation" focusable="false" class="icon icon-youtube" width="24"  height="24" ><defs><symbol id="youtube" viewBox="0 0 24 24"><path opacity=".3" d="M10.11 1.243H8.88l-.83 3.198-.865-3.198H5.9l.78 2.268.745 2.576v3.298h1.22V6.087l1.466-4.844zm3.26 6.177V5.296c0-.65-.1-1.123-.34-1.43-.303-.415-.732-.622-1.283-.622s-.976.207-1.28.622c-.234.308-.345.78-.345 1.43V7.42c0 .646.11 1.124.345 1.428.304.414.73.62 1.28.62s.98-.207 1.283-.62c.23-.304.34-.782.34-1.428zm-1.098.208c0 .56-.17.842-.524.842s-.524-.28-.524-.842V5.076c0-.562.17-.842.523-.842s.524.28.524.842v2.552zm5.165 1.758v-6.07h-1.1v4.638c-.245.344-.475.515-.696.515-.146 0-.23-.088-.256-.257-.013-.037-.013-.17-.013-.428V3.317h-1.1v4.798c0 .428.038.717.098.902.11.307.355.45.708.45.4 0 .82-.243 1.256-.745v.662h1.102z"></path><path d="M10.115 1.1H8.882l-.83 3.197L7.186 1.1H5.902l.78 2.268c.392 1.135.635 1.992.747 2.575V9.25h1.22V5.956l1.465-4.845zm3.26 6.177V5.163c0-.648-.1-1.123-.342-1.43-.304-.414-.73-.622-1.282-.622s-.976.207-1.28.622c-.234.307-.344.78-.344 1.43v2.125c0 .645.1 1.123.344 1.427.304.414.733.62 1.28.62s.98-.208 1.282-.62c.232-.304.342-.782.342-1.427zm-1.103.207c0 .56-.168.842-.522.842s-.524-.28-.524-.842v-2.55c0-.562.17-.84.524-.84s.522.278.522.84v2.552zm5.167 1.758V3.185h-1.1v4.637c-.243.344-.476.515-.693.515-.15 0-.235-.087-.258-.257-.015-.036-.015-.17-.015-.428V3.185h-1.097v4.798c0 .428.036.72.1.902.108.308.352.452.707.452.4 0 .818-.244 1.253-.746v.662h1.103zm.59 6.16c-.363 0-.547.277-.547.833v.556h1.1v-.556c0-.556-.182-.833-.542-.833zm-4.037 0c-.18 0-.362.086-.543.265v3.658c.18.183.364.268.543.268.312 0 .472-.268.472-.808v-2.562c0-.544-.16-.82-.472-.82zm6.695-3.052c-.22-.956-1.002-1.663-1.943-1.768-2.233-.25-4.492-.25-6.74-.25l-6.74.25c-.942.105-1.725.8-1.945 1.768-.317 1.365-.32 2.852-.32 4.257s0 2.9.313 4.253c.22.957 1.002 1.663 1.945 1.77 2.23.25 4.5.25 6.74.25l6.74-.25c.942-.107 1.725-.812 1.946-1.77.314-1.363.316-2.85.316-4.255s.002-2.9-.312-4.255zM8.134 13.587H6.83v6.924h-1.2v-6.924h-1.3v-1.135h3.8v1.135h.002zm3.286 6.924h-1.1v-.655c-.432.495-.843.736-1.243.736-.35 0-.592-.143-.7-.446-.06-.18-.096-.47-.096-.892v-4.746h1.087v4.42l.01.424c.025.167.1.252.254.252.218 0 .446-.166.688-.508V14.51h1.1v6.003zm4.134-1.802c0 .555-.038.955-.1 1.2-.145.446-.437.674-.87.674-.387 0-.76-.215-1.123-.663v.582h-1.1v-8.06h1.1v2.632c.352-.432.724-.65 1.123-.65.434 0 .726.228.87.68.072.24.1.638.1 1.205v2.392zm4.104-1.003h-2.176v1.065c0 .555.184.83.556.83.268 0 .425-.145.486-.435.01-.06.023-.3.023-.736h1.1v.16l-.023.702a1.54 1.54 0 01-.253.651c-.3.435-.75.65-1.316.65s-1.002-.205-1.316-.615c-.23-.3-.348-.774-.348-1.4v-2.104c0-.642.105-1.1.337-1.414.312-.412.746-.616 1.3-.616.546 0 .98.205 1.285.616.228.303.336.772.336 1.414v1.24h-.002z"></path></symbol></defs>
              <use xlink:href="#youtube" fill="#696969"></use>
            </svg>